<?xml version="1.0" encoding="utf-8"?>
<!-- Generator: Adobe Illustrator 22.1.0, SVG Export Plug-In . SVG Version: 6.00 Build 0)  -->
<svg version="1.1" id="Capa_1" xmlns="http://www.w3.org/2000/svg" xmlns:xlink="http://www.w3.org/1999/xlink" x="0px" y="0px"
	 viewBox="0 0 51 51" style="enable-background:new 0 0 51 51;" xml:space="preserve">
<style type="text/css">
	.st0{fill:#FFFFFF;}
	.st1{fill:none;}
</style>
<title>dwMesa de trabajo 34</title>
<rect x="24.6" y="15.1" class="st0" width="0.9" height="8.6"/>
<path class="st1" d="M25,34h-1.3V19.2c-4.3,0.9-7.1,5.1-6.3,9.4c0.7,3.6,3.7,6.2,7.4,6.4h0.4c4.4-0.3,7.8-4,7.5-8.5
	c-0.2-3.6-2.8-6.7-6.4-7.4V34H25z"/>
<path class="st0" d="M26.3,18.4v0.9c4.3,0.9,7.1,5.1,6.3,9.4c-0.7,3.6-3.7,6.2-7.4,6.4h-0.4c-4.4-0.3-7.8-4-7.5-8.5
	c0.2-3.6,2.8-6.7,6.4-7.4v-0.9c-4.8,0.6-8.2,5-7.6,9.8c0.6,4.4,4.3,7.7,8.7,7.7h0.4c4.9,0,8.8-4,8.8-8.8
	C34,22.7,30.7,18.9,26.3,18.4z"/>
</svg>
