<svg id="Capa_1" data-name="Capa 1" xmlns="http://www.w3.org/2000/svg" viewBox="0 0 36 36.5"><defs><style>.cls-1{fill:#303030;}</style></defs><title>icon_Mesa de trabajo 48 copia 9</title><rect class="cls-1" x="10.2" y="6.01" width="25.5" height="1.5"/><rect class="cls-1" x="10.2" y="18.96" width="25.5" height="1.5"/><rect class="cls-1" x="10.2" y="32.01" width="25.5" height="1.5"/><path class="cls-1" d="M3.72,3.13v7.26H1.89V5a3.45,3.45,0,0,1-1.71.92L0,4.35a3.49,3.49,0,0,0,1.25-.44,2.87,2.87,0,0,0,1-.78Z"/><path class="cls-1" d="M.36,22.18a13.23,13.23,0,0,0,2.66-2,2.54,2.54,0,0,0,.82-1.67,1,1,0,0,0-.25-.71,1,1,0,0,0-.73-.27,1,1,0,0,0-.81.38A1.93,1.93,0,0,0,1.75,19l-1.62-.5a2.32,2.32,0,0,1,.81-1.82A3.1,3.1,0,0,1,3,16a3.09,3.09,0,0,1,1.53.34,2.21,2.21,0,0,1,1.21,2A2.81,2.81,0,0,1,5,20.23,9.41,9.41,0,0,1,2.64,22h0c.48,0,1,0,1.46,0H5.81v1.44H.36Z"/><path class="cls-1" d="M4.89,29.57a1.8,1.8,0,0,1,.69,1.48,1.76,1.76,0,0,1-.24.95,1.55,1.55,0,0,1-.56.55,1.2,1.2,0,0,1-.57.18v0a1.52,1.52,0,0,1,.66.16,1.5,1.5,0,0,1,.6.53,1.63,1.63,0,0,1,.25,1,1.76,1.76,0,0,1-.36,1.09,2.47,2.47,0,0,1-1,.74,3.92,3.92,0,0,1-1.46.26A3.51,3.51,0,0,1,1,36.07,2.33,2.33,0,0,1,0,34.7L1.76,34a1.2,1.2,0,0,0,.34.82,1.1,1.1,0,0,0,.78.26,1.09,1.09,0,0,0,.74-.23.77.77,0,0,0,.27-.63.72.72,0,0,0-.25-.62,1.49,1.49,0,0,0-.82-.18H2.41v-1.2h.32A1.11,1.11,0,0,0,3.5,32a.82.82,0,0,0,.24-.65.76.76,0,0,0-.23-.61.85.85,0,0,0-.63-.22.94.94,0,0,0-1,1L.21,30.9a2,2,0,0,1,.92-1.42A3.42,3.42,0,0,1,3,29,2.91,2.91,0,0,1,4.89,29.57Z"/></svg>