<svg id="Capa_1" data-name="Capa 1" xmlns="http://www.w3.org/2000/svg" viewBox="0 0 37 36.5"><defs><style>.cls-1{fill:#dfdfdf;}.cls-2{fill:#303030;}.cls-3{fill:#fff;}</style></defs><title>icon_Mesa de trabajo 48 copia 10</title><polygon class="cls-1" points="0.75 17.08 0.75 35.75 26.42 35.75 26.42 29.25 26.42 19.42 26.42 0.75 0.75 0.75 0.75 10.25 0.75 17.08"/><path class="cls-2" d="M27.17,36.5H0V0H27.17ZM1.5,35H25.67V1.5H1.5Z"/><rect class="cls-2" x="7.75" y="28" width="11.67" height="1.5"/><rect class="cls-2" x="7.75" y="21" width="11.67" height="1.5"/><rect class="cls-2" x="7.75" y="7" width="11.67" height="1.5"/><rect class="cls-2" x="7.75" y="14" width="11.67" height="1.5"/><polygon class="cls-3" points="10.08 17.08 10.08 35.75 35.75 35.75 35.75 29.25 35.75 19.42 35.75 0.75 10.08 0.75 10.08 10.25 10.08 17.08"/><path class="cls-2" d="M36.5,36.5H9.33V0H36.5ZM10.83,35H35V1.5H10.83Z"/><rect class="cls-2" x="17.08" y="28" width="11.67" height="1.5"/><rect class="cls-2" x="17.08" y="21" width="11.67" height="1.5"/><rect class="cls-2" x="17.08" y="7" width="11.67" height="1.5"/><rect class="cls-2" x="17.08" y="14" width="11.67" height="1.5"/></svg>