<?xml version="1.0" encoding="utf-8"?>
<!-- Generator: Adobe Illustrator 22.1.0, SVG Export Plug-In . SVG Version: 6.00 Build 0)  -->
<svg version="1.1" id="Capa_1" xmlns="http://www.w3.org/2000/svg" xmlns:xlink="http://www.w3.org/1999/xlink" x="0px" y="0px"
	 viewBox="0 0 51 51" style="enable-background:new 0 0 51 51;" xml:space="preserve">
<style type="text/css">
	.st0{fill:none;stroke:#333333;stroke-linecap:square;stroke-miterlimit:10;}
</style>
<title>dwMesa de trabajo 31</title>
<circle class="st0" cx="25.5" cy="25.5" r="3.2"/>
<path class="st0" d="M37.5,27.9v-4.8H34c-0.2-0.7-0.5-1.3-0.8-1.9l2.5-2.5l-3.4-3.4l-2.5,2.5c-0.6-0.3-1.3-0.6-1.9-0.8v-3.5h-4.8V17
	c-0.7,0.2-1.3,0.5-1.9,0.8l-2.5-2.5l-3.4,3.4l2.5,2.5c-0.3,0.6-0.6,1.3-0.8,1.9h-3.5v4.8H17c0.2,0.7,0.5,1.3,0.8,1.9l-2.5,2.5
	l3.4,3.4l2.5-2.5c0.6,0.3,1.3,0.6,1.9,0.8v3.5h4.8V34c0.7-0.2,1.3-0.5,1.9-0.8l2.5,2.5l3.4-3.4l-2.5-2.5c0.3-0.6,0.6-1.3,0.8-1.9
	H37.5z"/>
</svg>
